<svg width="1920" height="1024" viewBox="0 0 1920 1024" fill="none" xmlns="http://www.w3.org/2000/svg">
<path d="M457.938 213.969C496.238 202.168 532.899 237.305 524.86 278.108L471.178 550.556C462.922 592.456 413.981 608.817 383.704 579.8L181.648 386.145C151.372 357.127 162.871 304.879 202.201 292.762L457.938 213.969Z" fill="#3840FF" fill-opacity="0.34"/>
<path d="M1759.98 488.102C1778.71 524.816 1757.16 568.331 1719.58 569.67L1479.24 578.234C1438.61 579.681 1410.17 531.481 1429.1 493.263L1549.64 249.88C1568.57 211.662 1619.93 213.592 1640.18 253.283L1759.98 488.102Z" fill="#3840FF" fill-opacity="0.34"/>
<path d="M379.948 818.178C338.952 834.007 298.202 793.958 310.915 750.331L387.582 487.234C398.972 448.148 445.792 435.24 474.354 463.311L644.924 630.951C673.486 659.023 663.914 708.54 627.185 722.721L379.948 818.178Z" fill="#3840FF" fill-opacity="0.34"/>
<path d="M1258.26 557.233C1235.18 518.311 1260.2 469.267 1301.68 472.108L1539.36 488.392C1578.16 491.05 1602.59 537.746 1584.13 573.953L1478.7 780.696C1460.23 816.903 1412.11 816.665 1390.52 780.26L1258.26 557.233Z" fill="#3840FF" fill-opacity="0.34"/>
<ellipse cx="610" cy="437" rx="89" ry="86" fill="#BBBEFF"/>
<ellipse cx="1370" cy="374" rx="89" ry="86" fill="#BBBEFF"/>
</svg>
